<svg xmlns="http://www.w3.org/2000/svg" width="1080" height="1920" viewBox="0 0 1080 1920"><defs><linearGradient id="paper" x2="0" y2="1"><stop stop-color="#fbf8f2"/><stop offset="1" stop-color="#eee4d7"/></linearGradient><pattern id="grain" width="32" height="32" patternUnits="userSpaceOnUse"><path d="M0 8h32M8 0v32" stroke="#7d5731" opacity=".035"/></pattern><filter id="shadow"><feDropShadow dx="0" dy="12" stdDeviation="16" flood-opacity=".17"/></filter></defs><rect x="0" y="0" width="1080" height="1920" rx="0" fill="url(#paper)" stroke="none"/><rect x="0" y="0" width="1080" height="1920" rx="0" fill="url(#grain)" stroke="none"/><rect x="0" y="0" width="1080" height="205" rx="0" fill="#171310" stroke="none"/><rect x="34" y="42" width="92" height="92" rx="2" fill="#271b15" stroke="#b67b4c"/><text x="80" y="111" font-family="Georgia" font-size="64" font-weight="700" fill="#f3e5d3" text-anchor="middle">M</text><text x="150" y="78" font-family="Arial" font-size="29" font-weight="800" fill="#f6eee5" text-anchor="start">MORETTI</text><text x="150" y="112" font-family="Arial" font-size="14" font-weight="600" fill="#bda48f" text-anchor="start">BLACKWOOD CITY</text><text x="840" y="70" font-family="Arial" font-size="13" font-weight="700" fill="#bda48f" text-anchor="middle">ON HAND</text><text x="840" y="110" font-family="Georgia" font-size="31" font-weight="700" fill="#d29c6b" text-anchor="middle">$12,976</text><rect x="960" y="45" width="72" height="72" rx="36" fill="#f3ece2" stroke="#b2784b"/><text x="996" y="92" font-family="Georgia" font-size="29" font-weight="700" fill="#31241d" text-anchor="middle">M</text><rect x="0" y="205" width="1080" height="155" rx="0" fill="#fffdf9" stroke="none"/><text x="46" y="254" font-family="Arial" font-size="14" font-weight="800" fill="#6f665f" text-anchor="start">ENERGY</text><text x="46" y="297" font-family="Arial" font-size="27" font-weight="800" fill="#211b17" text-anchor="start">100</text><rect x="46" y="320" width="185" height="9" rx="0" fill="#e2d9ce" stroke="none"/><rect x="46" y="320" width="160" height="9" rx="0" fill="#be8456" stroke="none"/><text x="306" y="254" font-family="Arial" font-size="14" font-weight="800" fill="#6f665f" text-anchor="start">NERVE</text><text x="306" y="297" font-family="Arial" font-size="27" font-weight="800" fill="#211b17" text-anchor="start">40</text><rect x="306" y="320" width="185" height="9" rx="0" fill="#e2d9ce" stroke="none"/><rect x="306" y="320" width="160" height="9" rx="0" fill="#b4774d" stroke="none"/><text x="566" y="254" font-family="Arial" font-size="14" font-weight="800" fill="#6f665f" text-anchor="start">HEALTH</text><text x="566" y="297" font-family="Arial" font-size="27" font-weight="800" fill="#211b17" text-anchor="start">1000</text><rect x="566" y="320" width="185" height="9" rx="0" fill="#e2d9ce" stroke="none"/><rect x="566" y="320" width="160" height="9" rx="0" fill="#c95d54" stroke="none"/><text x="826" y="254" font-family="Arial" font-size="14" font-weight="800" fill="#6f665f" text-anchor="start">HAPPY</text><text x="826" y="297" font-family="Arial" font-size="27" font-weight="800" fill="#211b17" text-anchor="start">250</text><rect x="826" y="320" width="185" height="9" rx="0" fill="#e2d9ce" stroke="none"/><rect x="826" y="320" width="160" height="9" rx="0" fill="#c5a349" stroke="none"/><line x1="0" y1="360" x2="1080" y2="360" stroke="#d4c5b5" stroke-width="2"/><rect x="0" y="1785" width="1080" height="135" rx="0" fill="#171310" stroke="none"/><g transform="translate(100 1817) scale(2)" fill="none" stroke="#84786e" stroke-width="2.2" stroke-linecap="round" stroke-linejoin="round"><path d="M4 20V8l8-4 8 4v12h-5v-6H9v6z"/></g><text x="124" y="1886" font-family="Arial" font-size="13" font-weight="800" fill="#958a82" text-anchor="middle">CITY</text><g transform="translate(360 1817) scale(2)" fill="none" stroke="#84786e" stroke-width="2.2" stroke-linecap="round" stroke-linejoin="round"><path d="M4 5h5l2-2h2l2 2h5v16H4zm4 5h8m-8 4h8m-8 4h5M6 8h12"/></g><text x="384" y="1886" font-family="Arial" font-size="13" font-weight="800" fill="#958a82" text-anchor="middle">OPS</text><g transform="translate(620 1817) scale(2)" fill="none" stroke="#84786e" stroke-width="2.2" stroke-linecap="round" stroke-linejoin="round"><path d="M5 3h13a2 2 0 0 1 2 2v16H7a3 3 0 0 1-3-3V4m3 14h13M8 7h8M8 11h6"/></g><text x="644" y="1886" font-family="Arial" font-size="13" font-weight="800" fill="#958a82" text-anchor="middle">ITEMS</text><g transform="translate(880 1817) scale(2)" fill="none" stroke="#d49a62" stroke-width="2.2" stroke-linecap="round" stroke-linejoin="round"><path d="M3 18 8 12l4 3 7-9 2 2-9 11-4-3-3 4z"/></g><text x="904" y="1886" font-family="Arial" font-size="13" font-weight="800" fill="#f1d3b1" text-anchor="middle">MARKETS</text><text x="54" y="437" font-family="Arial" font-size="17" font-weight="800" fill="#8b5536" text-anchor="start">FEDERAL TRUST · LIVE MARKET DESK</text><text x="54" y="512" font-family="Georgia" font-size="58" font-weight="700" fill="#201915" text-anchor="start">Study the markets</text><text x="54" y="554" font-family="Georgia" font-size="22" font-weight="400" fill="#74695f" text-anchor="start">Provider-backed charts and virtual trading with no cash value.</text><line x1="54" y1="590" x2="1026" y2="590" stroke="#cbb9a7" stroke-width="2"/><rect x="54" y="628" width="972" height="875" rx="3" fill="#fdfbf7" stroke="#c5b29d"/><text x="88" y="676" font-family="Arial" font-size="17" font-weight="800" fill="#8b5536" text-anchor="start">XAUUSD</text><text x="88" y="718" font-family="Georgia" font-size="34" font-weight="700" fill="#211a16" text-anchor="start">Gold / US Dollar</text><text x="940" y="686" font-family="Arial" font-size="13" font-weight="800" fill="#3f8663" text-anchor="end">LIVE FEED</text><text x="940" y="722" font-family="monospace" font-size="27" font-weight="700" fill="#25201c" text-anchor="end">2448.75</text><rect x="88" y="760" width="904" height="410" rx="2" fill="#172027" stroke="#263742"/><line x1="88" y1="820" x2="992" y2="820" stroke="#31414a" stroke-width="1"/><line x1="88" y1="892" x2="992" y2="892" stroke="#31414a" stroke-width="1"/><line x1="88" y1="964" x2="992" y2="964" stroke="#31414a" stroke-width="1"/><line x1="88" y1="1036" x2="992" y2="1036" stroke="#31414a" stroke-width="1"/><line x1="88" y1="1108" x2="992" y2="1108" stroke="#31414a" stroke-width="1"/><line x1="128" y1="760" x2="128" y2="1170" stroke="#27363e" stroke-width="1"/><line x1="258" y1="760" x2="258" y2="1170" stroke="#27363e" stroke-width="1"/><line x1="388" y1="760" x2="388" y2="1170" stroke="#27363e" stroke-width="1"/><line x1="518" y1="760" x2="518" y2="1170" stroke="#27363e" stroke-width="1"/><line x1="648" y1="760" x2="648" y2="1170" stroke="#27363e" stroke-width="1"/><line x1="778" y1="760" x2="778" y2="1170" stroke="#27363e" stroke-width="1"/><line x1="908" y1="760" x2="908" y2="1170" stroke="#27363e" stroke-width="1"/><polyline points="100,1080 160,1050 220,1075 280,970 340,1000 400,920 460,950 520,850 580,890 640,820 700,845 760,785 820,820 880,750 970,790" fill="none" stroke="#d39a61" stroke-width="5"/><line x1="150" y1="1000" x2="150" y2="900" stroke="#45a478" stroke-width="4"/><rect x="137" y="930" width="26" height="65" rx="0" fill="#45a478" stroke="none"/><line x1="258" y1="935" x2="258" y2="835" stroke="#d1625c" stroke-width="4"/><rect x="245" y="865" width="26" height="65" rx="0" fill="#d1625c" stroke="none"/><line x1="366" y1="870" x2="366" y2="770" stroke="#45a478" stroke-width="4"/><rect x="353" y="800" width="26" height="65" rx="0" fill="#45a478" stroke="none"/><line x1="474" y1="1000" x2="474" y2="900" stroke="#d1625c" stroke-width="4"/><rect x="461" y="930" width="26" height="65" rx="0" fill="#d1625c" stroke="none"/><line x1="582" y1="935" x2="582" y2="835" stroke="#45a478" stroke-width="4"/><rect x="569" y="865" width="26" height="65" rx="0" fill="#45a478" stroke="none"/><line x1="690" y1="870" x2="690" y2="770" stroke="#d1625c" stroke-width="4"/><rect x="677" y="800" width="26" height="65" rx="0" fill="#d1625c" stroke="none"/><line x1="798" y1="1000" x2="798" y2="900" stroke="#45a478" stroke-width="4"/><rect x="785" y="930" width="26" height="65" rx="0" fill="#45a478" stroke="none"/><line x1="906" y1="935" x2="906" y2="835" stroke="#d1625c" stroke-width="4"/><rect x="893" y="865" width="26" height="65" rx="0" fill="#d1625c" stroke="none"/><text x="108" y="1208" font-family="Arial" font-size="12" font-weight="800" fill="#776b62" text-anchor="start">BALANCE</text><text x="108" y="1250" font-family="monospace" font-size="27" font-weight="700" fill="#211a16" text-anchor="start">LC 7,250</text><text x="420" y="1208" font-family="Arial" font-size="12" font-weight="800" fill="#776b62" text-anchor="start">EQUITY</text><text x="420" y="1250" font-family="monospace" font-size="27" font-weight="700" fill="#211a16" text-anchor="start">LC 7,314</text><text x="732" y="1208" font-family="Arial" font-size="12" font-weight="800" fill="#776b62" text-anchor="start">FLOATING P/L</text><text x="732" y="1250" font-family="monospace" font-size="27" font-weight="700" fill="#3d805f" text-anchor="start">+ LC 64</text><rect x="88" y="1290" width="904" height="160" rx="2" fill="#f2e9de" stroke="#d5c4b2"/><text x="112" y="1330" font-family="Arial" font-size="12" font-weight="800" fill="#8b5536" text-anchor="start">VIRTUAL BROKERAGE ACCOUNT</text><text x="112" y="1374" font-family="Arial" font-size="22" font-weight="700" fill="#241b16" text-anchor="start">Choose leverage, lot size and risk controls</text><text x="112" y="1412" font-family="Arial" font-size="15" font-weight="400" fill="#776b62" text-anchor="start">Ledger Credits cannot be bought, withdrawn or converted to cash.</text><text x="54" y="1560" font-family="Arial" font-size="15" font-weight="400" fill="#756a61" text-anchor="start">Market data may be delayed or unavailable outside provider coverage.</text><text x="54" y="1592" font-family="Arial" font-size="15" font-weight="400" fill="#756a61" text-anchor="start">In-game virtual trading only. Not financial advice or trade execution.</text></svg>